# xmcd
#
# Track frame offsets:
#	150
#	6438
#	29365
#	46255
#	73532
#	95879
#	113608
#	126848
#	148883
#	165606
#	192673
#	218453
#	234376
#	260877
#	281267
#	309147
#
# Disc length: 4359 seconds
#
# Revision: 1
# Processed by: cddbd v1.5.2PL0 Copyright (c) Steve Scherf et al.
# Submitted via: audiograbber 1.83.01
#
DISCID=e6110510
DTITLE=Lambchop - Is a Woman (Bonus)
DYEAR=2010
DGENRE=
TTITLE0=I am glad I never
TTITLE1=art lover
TTITLE2=the gusher
TTITLE3=flub
TTITLE4=haul away joe
TTITLE5=di di 7
TTITLE6=kurt wagner's heart attack
TTITLE7=uti
TTITLE8=we shall not be overwhelmed
TTITLE9=the getttysburg address
TTITLE10=the fadeaway jumper
TTITLE11=yardwork
TTITLE12=greylines in heaven
TTITLE13=backstreet girl
TTITLE14=this corrosion
TTITLE15=the puppy and the leaf
EXTD=
EXTT0=
EXTT1=
EXTT2=
EXTT3=
EXTT4=
EXTT5=
EXTT6=
EXTT7=
EXTT8=
EXTT9=
EXTT10=
EXTT11=
EXTT12=
EXTT13=
EXTT14=
EXTT15=
PLAYORDER=
